<svg width="1080" height="1080" viewBox="0 0 1080 1080" xmlns="http://www.w3.org/2000/svg">
<rect width="1080" height="1080" fill="#FAF3E6"/>

<text x="72" y="96" font-family="Lato" font-weight="900" font-size="44" letter-spacing="6" fill="#211C18">MAKHANIX</text>
<text x="72" y="130" font-family="Lato" font-weight="700" font-size="22" letter-spacing="2" fill="#211C18" opacity="0.65">CRUNCH BETTER. SNACK SMARTER.</text>
<text x="540" y="250" font-family="Lato" font-weight="900" font-size="78" fill="#211C18" text-anchor="middle">The tiffin came back</text>
<text x="540" y="345" font-family="Lato" font-weight="900" font-size="110" fill="#2E8B57" text-anchor="middle">empty.</text>
<g transform="translate(540,505)">
<ellipse cx="0" cy="180" rx="290" ry="42" fill="#000000" opacity="0.12"/>
<g transform="translate(-250,-48) rotate(-14)">
<ellipse cx="0" cy="0" rx="150" ry="42" fill="#C7CDD4"/>
<ellipse cx="0" cy="-12" rx="150" ry="42" fill="#E4E9EE" stroke="#9AA3AC" stroke-width="4"/>
<ellipse cx="0" cy="-12" rx="112" ry="30" fill="#D3DAE0"/>
<circle cx="0" cy="-16" r="16" fill="#9AA3AC"/>
</g>
<ellipse cx="60" cy="130" rx="230" ry="62" fill="#B9C0C8"/>
<rect x="-170" y="18" width="460" height="112" rx="14" fill="#DEE4EA" stroke="#9AA3AC" stroke-width="4"/>
<ellipse cx="60" cy="18" rx="230" ry="62" fill="#EDF1F5" stroke="#9AA3AC" stroke-width="4"/>
<ellipse cx="60" cy="22" rx="196" ry="50" fill="#CBD3DA"/>
<ellipse cx="60" cy="26" rx="196" ry="46" fill="#F3F6F8"/>
<circle cx="-30" cy="30" r="6" fill="#D9C29A"/>
<circle cx="130" cy="18" r="5" fill="#D9C29A"/>
<circle cx="70" cy="42" r="4" fill="#D9C29A"/>
<text x="60" y="36" font-family="Lato" font-weight="900" font-size="34" fill="#9AA3AC" text-anchor="middle" opacity="0.9">100% EMPTY</text>
</g>
<g transform="translate(540,745)">
<rect x="-424" y="0" width="270" height="56" rx="28" fill="#2E8B57"/>
<text x="-289" y="37" font-family="Lato" font-weight="900" font-size="25" fill="#FFFFFF" text-anchor="middle">NO PALM OIL</text>
<rect x="-134" y="0" width="220" height="56" rx="28" fill="#2E8B57"/>
<text x="-24" y="37" font-family="Lato" font-weight="900" font-size="25" fill="#FFFFFF" text-anchor="middle">NO MSG</text>
<rect x="106" y="0" width="318" height="56" rx="28" fill="#E8442E"/>
<text x="265" y="37" font-family="Lato" font-weight="900" font-size="25" fill="#FFFFFF" text-anchor="middle">KID-DEVOURED</text>
</g>
<text x="540" y="875" font-family="Lato" font-weight="700" font-size="28" fill="#211C18" text-anchor="middle" opacity="0.8">Tangy Cheese + Choco Crunch &#8212; the school-bag favourites</text>
<rect x="260.0" y="950" width="560" height="88" rx="44" fill="#2E8B57"/>
<text x="540" y="1007" font-family="Lato" font-weight="900" font-size="36" fill="#FFFFFF" text-anchor="middle">TRY THE KIDS&#8217; DUO @ &#8377;398  &#8594;</text>
<text x="540" y="1064" font-family="Lato" font-weight="700" font-size="22" fill="#211C18" text-anchor="middle" opacity="0.55">Air-roasted &#183; FSSAI-certified facility &#183; makhanix.in</text>
</svg>