<svg width="1080" height="1080" viewBox="0 0 1080 1080" xmlns="http://www.w3.org/2000/svg">
<rect width="1080" height="1080" fill="#FAF3E6"/>

<rect x="0" y="0" width="1080" height="540" fill="#B08954"/>
<g opacity="0.25">
<path d="M0 90 H1080 M0 190 H1080 M0 290 H1080 M0 390 H1080 M0 490 H1080" stroke="#7A5A33" stroke-width="3"/>
<path d="M120 0 V540 M340 0 V540 M560 0 V540 M780 0 V540 M990 0 V540" stroke="#7A5A33" stroke-width="2"/>
</g>
<g transform="translate(790,270) rotate(6)">
<rect x="-130" y="-160" width="260" height="320" rx="8" fill="#A3793F" stroke="#7A5A33" stroke-width="5"/>
<rect x="-130" y="-160" width="260" height="70" fill="#96703A"/>
<text x="0" y="-115" font-family="Lato" font-weight="700" font-size="30" fill="#6B4E2A" text-anchor="middle">makhana&#8482;</text>
<text x="0" y="20" font-family="Lato" font-weight="700" font-size="26" fill="#6B4E2A" text-anchor="middle">now with</text>
<text x="0" y="56" font-family="Lato" font-weight="700" font-size="26" fill="#6B4E2A" text-anchor="middle">&#8220;flavour&#8221;</text>
<text x="0" y="125" font-family="Lato" font-weight="400" font-size="20" fill="#6B4E2A" text-anchor="middle" opacity="0.8">tastes like the box</text>
</g>
<text x="72" y="180" font-family="Lato" font-weight="900" font-size="64" fill="#5C431F">Their makhana:</text>
<text x="72" y="290" font-family="Lato" font-weight="900" font-size="96" fill="#463315">cardboard</text>
<text x="72" y="400" font-family="Lato" font-weight="900" font-size="96" fill="#463315">with ambition.</text>
<rect x="0" y="540" width="1080" height="540" fill="#E8442E"/>
<circle cx="730" cy="710" r="18" fill="#F0DFC0" stroke="#D9C29A" stroke-width="3"/>
<circle cx="725" cy="705" r="4" fill="#FFFFFF" opacity="0.7"/>
<circle cx="851" cy="817" r="22" fill="#F0DFC0" stroke="#D9C29A" stroke-width="3"/>
<circle cx="845" cy="810" r="5" fill="#FFFFFF" opacity="0.7"/>
<circle cx="839" cy="838" r="22" fill="#F0DFC0" stroke="#D9C29A" stroke-width="3"/>
<circle cx="833" cy="831" r="5" fill="#FFFFFF" opacity="0.7"/>
<circle cx="764" cy="864" r="23" fill="#F0DFC0" stroke="#D9C29A" stroke-width="3"/>
<circle cx="759" cy="857" r="5" fill="#FFFFFF" opacity="0.7"/>
<circle cx="904" cy="781" r="18" fill="#F0DFC0" stroke="#D9C29A" stroke-width="3"/>
<circle cx="900" cy="776" r="4" fill="#FFFFFF" opacity="0.7"/>
<circle cx="748" cy="816" r="21" fill="#F0DFC0" stroke="#D9C29A" stroke-width="3"/>
<circle cx="742" cy="810" r="5" fill="#FFFFFF" opacity="0.7"/>
<circle cx="814" cy="899" r="17" fill="#F0DFC0" stroke="#D9C29A" stroke-width="3"/>
<circle cx="810" cy="894" r="4" fill="#FFFFFF" opacity="0.7"/>
<circle cx="821" cy="795" r="19" fill="#F0DFC0" stroke="#D9C29A" stroke-width="3"/>
<circle cx="817" cy="790" r="4" fill="#FFFFFF" opacity="0.7"/>
<circle cx="734" cy="824" r="21" fill="#F0DFC0" stroke="#D9C29A" stroke-width="3"/>
<circle cx="729" cy="818" r="5" fill="#FFFFFF" opacity="0.7"/>
<circle cx="749" cy="726" r="19" fill="#F0DFC0" stroke="#D9C29A" stroke-width="3"/>
<circle cx="744" cy="720" r="4" fill="#FFFFFF" opacity="0.7"/>
<circle cx="823" cy="796" r="16" fill="#F0DFC0" stroke="#D9C29A" stroke-width="3"/>
<circle cx="819" cy="791" r="4" fill="#FFFFFF" opacity="0.7"/>
<circle cx="697" cy="858" r="17" fill="#F0DFC0" stroke="#D9C29A" stroke-width="3"/>
<circle cx="693" cy="853" r="4" fill="#FFFFFF" opacity="0.7"/>
<circle cx="841" cy="723" r="23" fill="#F0DFC0" stroke="#D9C29A" stroke-width="3"/>
<circle cx="835" cy="717" r="5" fill="#FFFFFF" opacity="0.7"/>
<circle cx="729" cy="867" r="22" fill="#F0DFC0" stroke="#D9C29A" stroke-width="3"/>
<circle cx="723" cy="860" r="5" fill="#FFFFFF" opacity="0.7"/>
<circle cx="729" cy="750" r="18" fill="#F0DFC0" stroke="#D9C29A" stroke-width="3"/>
<circle cx="725" cy="745" r="4" fill="#FFFFFF" opacity="0.7"/>
<circle cx="919" cy="738" r="23" fill="#F0DFC0" stroke="#D9C29A" stroke-width="3"/>
<circle cx="913" cy="732" r="5" fill="#FFFFFF" opacity="0.7"/>
<circle cx="768" cy="756" r="22" fill="#F0DFC0" stroke="#D9C29A" stroke-width="3"/>
<circle cx="763" cy="749" r="5" fill="#FFFFFF" opacity="0.7"/>
<circle cx="814" cy="825" r="20" fill="#F0DFC0" stroke="#D9C29A" stroke-width="3"/>
<circle cx="809" cy="819" r="4" fill="#FFFFFF" opacity="0.7"/>
<circle cx="832" cy="846" r="20" fill="#F0DFC0" stroke="#D9C29A" stroke-width="3"/>
<circle cx="827" cy="840" r="4" fill="#FFFFFF" opacity="0.7"/>
<circle cx="872" cy="766" r="17" fill="#F0DFC0" stroke="#D9C29A" stroke-width="3"/>
<circle cx="868" cy="761" r="4" fill="#FFFFFF" opacity="0.7"/>
<circle cx="770" cy="720" r="23" fill="#F0DFC0" stroke="#D9C29A" stroke-width="3"/>
<circle cx="764" cy="713" r="5" fill="#FFFFFF" opacity="0.7"/>
<circle cx="939" cy="819" r="17" fill="#F0DFC0" stroke="#D9C29A" stroke-width="3"/>
<circle cx="935" cy="814" r="4" fill="#FFFFFF" opacity="0.7"/>
<circle cx="732" cy="879" r="19" fill="#F0DFC0" stroke="#D9C29A" stroke-width="3"/>
<circle cx="728" cy="873" r="4" fill="#FFFFFF" opacity="0.7"/>
<circle cx="892" cy="823" r="23" fill="#F0DFC0" stroke="#D9C29A" stroke-width="3"/>
<circle cx="886" cy="816" r="5" fill="#FFFFFF" opacity="0.7"/>
<circle cx="815" cy="798" r="17" fill="#F0DFC0" stroke="#D9C29A" stroke-width="3"/>
<circle cx="810" cy="793" r="4" fill="#FFFFFF" opacity="0.7"/>
<circle cx="759" cy="911" r="20" fill="#F0DFC0" stroke="#D9C29A" stroke-width="3"/>
<circle cx="754" cy="905" r="4" fill="#FFFFFF" opacity="0.7"/>
<text x="72" y="700" font-family="Lato" font-weight="900" font-size="64" fill="#FFD9CF">Ours:</text>
<text x="72" y="810" font-family="Lato" font-weight="900" font-size="96" fill="#FFFFFF">9 flavours of</text>
<text x="72" y="920" font-family="Lato" font-weight="900" font-size="96" fill="#F5C33B">actual taste.</text>
<text x="72" y="982" font-family="Lato" font-weight="700" font-size="28" fill="#FFFFFF" opacity="0.9">Peri Peri &#183; Magic Masala &#183; Tangy Cheese &#183; Minty Pudina + 5 more</text>
<g transform="translate(0,0)">
<rect x="700" y="1000" width="308" height="56" rx="28" fill="#FFFFFF"/>
<text x="854" y="1037" font-family="Lato" font-weight="900" font-size="26" fill="#E8442E" text-anchor="middle">PICK YOUR CRUNCH &#8594;</text>
</g>
<text x="72" y="1037" font-family="Lato" font-weight="900" font-size="30" fill="#FFFFFF" letter-spacing="4">MAKHANIX</text>
</svg>